<svg width="800" height="450" viewBox="0 0 800 450" fill="none" xmlns="http://www.w3.org/2000/svg"><path fill="#F2F5F8" d="M0 0h800v450H0z"/><path d="M438.392 192.599c0-8.615-6.983-15.599-15.598-15.599h-55.195c-8.615 0-15.599 6.984-15.599 15.599v55.195c0 8.615 6.984 15.598 15.599 15.598h23.59l1.708-6.83c.031-.124.063-.246.096-.369h-25.394a8.381 8.381 0 0 1-2.792-.475l27.87-27.292.402-.339a3.598 3.598 0 0 1 4.635.34l9.979 9.774 5.092-5.092-10.033-9.826-.617-.559c-4.215-3.543-10.496-3.357-14.494.558l-27.946 27.361a8.38 8.38 0 0 1-.496-2.849v-55.195a8.4 8.4 0 0 1 8.4-8.4h55.195a8.4 8.4 0 0 1 8.399 8.4v23.913a15.827 15.827 0 0 1 7.199-1.057v-22.856Zm-16.778 12.009c0-5.97-4.839-10.809-10.809-10.809-5.97 0-10.809 4.839-10.809 10.809 0 5.969 4.839 10.809 10.809 10.809 5.97 0 10.809-4.84 10.809-10.809Zm-14.419 0a3.61 3.61 0 1 1 7.22 0 3.61 3.61 0 0 1-7.22 0Zm22.078 18.801-28.33 28.329a12.902 12.902 0 0 0-3.39 5.988l-2.196 8.786c-.956 3.822 2.506 7.283 6.327 6.327l8.786-2.196a12.894 12.894 0 0 0 5.988-3.39l28.329-28.329c4.284-4.284 4.284-11.231 0-15.515-4.284-4.284-11.23-4.284-15.514 0Z" fill="#647184"/></svg>
